<svg aria-hidden="true" style="position: absolute; width: 0; height: 0; overflow: hidden;" version="1.1" xmlns="http://www.w3.org/2000/svg" xmlns:xlink="http://www.w3.org/1999/xlink">
<defs>
<symbol id="icon-explore" viewBox="0 0 32 32">
<path d="M29 24v4h-12v-4h2v-6h-6v6h2v4h-12v-4h2v-16h2v-4h4v4h2v2h6v-2h2v-4h4v4h2v16h2z"></path>
</symbol>
<symbol id="icon-heart" viewBox="0 0 32 32">
<path d="M23 2c-2.404 0-4.331 0.863-6.030 2.563-0.001 0.001-0.002 0.002-0.003 0.003h-0.001l-0.966 1.217-0.966-1.143c-0.001-0.001-0.002-0.002-0.003-0.003h-0.001c-1.7-1.701-3.626-2.637-6.030-2.637s-4.664 0.936-6.364 2.636c-1.699 1.7-2.636 3.96-2.636 6.364 0 2.402 0.935 4.662 2.633 6.361l11.947 12.047c0.375 0.379 0.887 0.592 1.42 0.592s1.045-0.213 1.42-0.592l11.946-12.047c1.698-1.699 2.634-3.958 2.634-6.361s-0.937-4.664-2.636-6.364c-1.7-1.7-3.96-2.636-6.364-2.636v0z"></path>
</symbol>
<symbol id="icon-checkmark" viewBox="0 0 32 32">
<path d="M31.706 7.133l-2.839-2.839c-0.393-0.393-1.026-0.393-1.419 0l-14.515 15.324-8.32-8.324c-0.397-0.397-1.041-0.397-1.438 0l-2.876 2.878c-0.397 0.396-0.397 1.040 0 1.438l11.833 12.108c0.229 0.23 0.54 0.309 0.839 0.27 0.309 0.046 0.631-0.032 0.868-0.27l17.867-19.165c0.392-0.392 0.392-1.028 0-1.42z"></path>
</symbol>
<symbol id="icon-x" viewBox="0 0 32 32">
<path d="M30 24.398l-8.406-8.398 8.406-8.398-5.602-5.602-8.398 8.402-8.402-8.402-5.598 5.602 8.398 8.398-8.398 8.398 5.598 5.602 8.402-8.402 8.398 8.402z"></path>
</symbol>
<symbol id="icon-facebook" viewBox="0 0 32 32">
<path d="M19 6h5v-6h-5c-3.86 0-7 3.14-7 7v3h-4v6h4v16h6v-16h5l1-6h-6v-3c0-0.542 0.458-1 1-1z"></path>
</symbol>
<symbol id="icon-twitter" viewBox="0 0 32 32">
<path d="M32 7.075c-1.175 0.525-2.444 0.875-3.769 1.031 1.356-0.813 2.394-2.1 2.887-3.631-1.269 0.75-2.675 1.3-4.169 1.594-1.2-1.275-2.906-2.069-4.794-2.069-3.625 0-6.563 2.938-6.563 6.563 0 0.512 0.056 1.012 0.169 1.494-5.456-0.275-10.294-2.888-13.531-6.862-0.563 0.969-0.887 2.1-0.887 3.3 0 2.275 1.156 4.287 2.919 5.463-1.075-0.031-2.087-0.331-2.975-0.819 0 0.025 0 0.056 0 0.081 0 3.181 2.263 5.838 5.269 6.437-0.55 0.15-1.131 0.231-1.731 0.231-0.425 0-0.831-0.044-1.237-0.119 0.838 2.606 3.263 4.506 6.131 4.563-2.25 1.762-5.075 2.813-8.156 2.813-0.531 0-1.050-0.031-1.569-0.094 2.913 1.869 6.362 2.95 10.069 2.95 12.075 0 18.681-10.006 18.681-18.681 0-0.287-0.006-0.569-0.019-0.85 1.281-0.919 2.394-2.075 3.275-3.394z"></path>
</symbol>
<symbol id="icon-youtube" viewBox="0 0 32 32">
<path d="M31.681 9.6c0 0-0.313-2.206-1.275-3.175-1.219-1.275-2.581-1.281-3.206-1.356-4.475-0.325-11.194-0.325-11.194-0.325h-0.012c0 0-6.719 0-11.194 0.325-0.625 0.075-1.987 0.081-3.206 1.356-0.963 0.969-1.269 3.175-1.269 3.175s-0.319 2.588-0.319 5.181v2.425c0 2.587 0.319 5.181 0.319 5.181s0.313 2.206 1.269 3.175c1.219 1.275 2.819 1.231 3.531 1.369 2.563 0.244 10.881 0.319 10.881 0.319s6.725-0.012 11.2-0.331c0.625-0.075 1.988-0.081 3.206-1.356 0.962-0.969 1.275-3.175 1.275-3.175s0.319-2.587 0.319-5.181v-2.425c-0.006-2.588-0.325-5.181-0.325-5.181zM12.694 20.15v-8.994l8.644 4.513-8.644 4.481z"></path>
</symbol>
<symbol id="icon-keyboard_arrow_left" viewBox="0 0 24 24">
<path d="M15.422 16.594l-1.406 1.406-6-6 6-6 1.406 1.406-4.594 4.594z"></path>
</symbol>
<symbol id="icon-keyboard_arrow_right" viewBox="0 0 24 24">
<path d="M8.578 16.594l4.594-4.594-4.594-4.594 1.406-1.406 6 6-6 6z"></path>
</symbol>
<symbol id="icon-fastfood" viewBox="0 0 24 24">
<path d="M1.031 17.016h15v1.969h-15v-1.969zM16.031 15h-15.047q0-2.297 1.547-3.844t3.75-1.922 4.43 0 3.773 1.922 1.547 3.844zM0.984 21.984v-0.984h15.047v0.984q0 0.422-0.305 0.703t-0.727 0.281h-12.984q-0.422 0-0.727-0.281t-0.305-0.703zM18.047 22.969v-8.016q0-2.953-2.438-5.297-1.453-1.453-4.266-2.25l-0.281-2.344h4.969v-4.078h1.969v4.078h5.016l-1.688 16.453q-0.094 0.609-0.539 1.031t-1.055 0.422h-1.688z"></path>
</symbol>
<symbol id="icon-star" viewBox="0 0 24 24">
<path d="M12 17.25l-6.188 3.75 1.641-7.031-5.438-4.734 7.172-0.609 2.813-6.609 2.813 6.609 7.172 0.609-5.438 4.734 1.641 7.031z"></path>
</symbol>
<symbol id="icon-star_half" viewBox="0 0 24 24">
<path d="M12 15.422l3.75 2.25-0.984-4.266 3.328-2.906-4.406-0.375-1.688-4.031v9.328zM21.984 9.234l-5.438 4.734 1.641 7.031-6.188-3.75-6.188 3.75 1.641-7.031-5.438-4.734 7.172-0.609 2.813-6.609 2.813 6.609z"></path>
</symbol>
<symbol id="icon-star_outline" viewBox="0 0 24 24">
<path d="M12 15.422l3.75 2.25-0.984-4.266 3.328-2.906-4.406-0.375-1.688-4.031-1.688 4.031-4.406 0.375 3.328 2.906-0.984 4.266zM21.984 9.234l-5.438 4.734 1.641 7.031-6.188-3.75-6.188 3.75 1.641-7.031-5.438-4.734 7.172-0.609 2.813-6.609 2.813 6.609z"></path>
</symbol>
<symbol id="icon-pool" viewBox="0 0 24 24">
<path d="M14.016 5.484q0-1.031 0.727-1.758t1.758-0.727 1.758 0.727 0.727 1.758-0.727 1.781-1.758 0.75-1.758-0.75-0.727-1.781zM8.672 12q-0.563 0-1.172-0.375-0.188-0.141-0.75-0.375l3.234-3.234-0.984-1.031q-1.5-1.5-3.984-1.5v-2.484q1.922 0 3.141 0.445t2.344 1.57l6.422 6.375q-0.281 0.188-0.422 0.234-0.609 0.375-1.172 0.375-0.516 0-1.125-0.375-1.031-0.609-2.203-0.609t-2.203 0.609q-0.609 0.375-1.125 0.375zM21.984 16.5q-1.078 0-2.156-0.656-0.516-0.328-1.172-0.328-0.609 0-1.125 0.328-1.078 0.656-2.203 0.656-1.078 0-2.156-0.656-0.516-0.328-1.172-0.328-0.609 0-1.125 0.328-1.078 0.656-2.203 0.656-1.078 0-2.156-0.656-0.516-0.328-1.172-0.328-0.609 0-1.125 0.328-1.078 0.656-2.203 0.656v-2.016q0.609 0 1.125-0.328 1.078-0.656 2.203-0.656 1.078 0 2.156 0.656 0.516 0.328 1.172 0.328 0.609 0 1.125-0.328 1.078-0.656 2.203-0.656 1.078 0 2.156 0.656 0.516 0.328 1.172 0.328 0.609 0 1.125-0.328 1.078-0.656 2.203-0.656 1.078 0 2.156 0.656 0.516 0.328 1.172 0.328v2.016zM21.984 21q-1.078 0-2.156-0.656-0.516-0.328-1.172-0.328-0.609 0-1.125 0.328-1.078 0.656-2.203 0.656-1.078 0-2.156-0.656-0.516-0.328-1.172-0.328-0.609 0-1.125 0.328-1.078 0.656-2.203 0.656t-2.203-0.656q-0.516-0.328-1.125-0.328-0.656 0-1.172 0.328-1.078 0.656-2.156 0.656v-2.016q0.609 0 1.125-0.328 1.078-0.656 2.203-0.656 1.078 0 2.156 0.656 0.516 0.328 1.172 0.328 0.609 0 1.125-0.328 1.078-0.656 2.203-0.656t2.203 0.656q0.516 0.328 1.125 0.328 0.656 0 1.172-0.328 1.078-0.656 2.156-0.656 1.125 0 2.203 0.656 0.516 0.328 1.125 0.328v2.016z"></path>
</symbol>
</defs>
</svg>
